# xmcd
# 
# Track frame offsets:
#     150
#     20607
#     36603
#     48757
#     60535
#     73597
#     94592
#     111354
#     124530
#     140829
#     154087
#     166150
#     179785
#     193464
#     204025
#     217458
#     229259
#     244381
#     258030
#     278464
# 
# Disc length: 3944
# 
# Revision: 0
# Processed by: cddbd v1.5.2PL0 Copyright (c) Steve Scherf et al.
# Submitted via: fre:ac v1.0.27
# 
DISCID=2f0f6614
DTITLE=Various Artist - The Musica Collection - Country
DYEAR=0
DGENRE=Country
TTITLE0=Dolly Parton - The River unbroken
TTITLE1=Willie Nelson - Always on my mind
TTITLE2=Frankie Laine - High Noon (Do not forsake me)
TTITLE3=Gene Autry - Back in the saddle again
TTITLE4=Lynn Anderson - I never promised you a rose garden
TTITLE5=Marty Robbins - El Paso
TTITLE6=Johnny Cash - A Boy named Sue
TTITLE7=Charlie Rich - Behind closed doors
TTITLE8=Charlie Daniels Band - The devil went down to Georgia
TTITLE9=Tanya Tucker - Delta dawn
TTITLE10=Tammy Wynette - Stand by your man
TTITLE11=Jimmy Dean - Big bad John
TTITLE12=Flatt and Scruggs - Duelling Banjos
TTITLE13=The Statler Brothers - Flowers on the Wall
TTITLE14=Claude King - Wolverton Mountain
TTITLE15=Johnny Paycheck - Take this job and shove it
TTITLE16=Poco - You better think twice
TTITLE17=The Highwaymen - Highwaymen
TTITLE18=Kris Kristofferson - Sunday morning coming down
TTITLE19=Roger Miller - King of the road
EXTD=
EXTT0=
EXTT1=
EXTT2=
EXTT3=
EXTT4=
EXTT5=
EXTT6=
EXTT7=
EXTT8=
EXTT9=
EXTT10=
EXTT11=
EXTT12=
EXTT13=
EXTT14=
EXTT15=
EXTT16=
EXTT17=
EXTT18=
EXTT19=
PLAYORDER=
